# xmcd CD database file
#
# Track frame offsets:
#	150
#	18614
#	29137
#	48937
#	63745
#	80875
#	90991
#	101920
#	114124
#	128415
#	143164
#	158099
#	171467
#	185576
#	200758
#	212610
#	221887
#	235345
#
# Disc length: 3317 seconds
#
# Revision: 0
# Processed by: cddbd v1.5.2PL0 Copyright (c) Steve Scherf et al.
# Submitted via: CDex 1.51
#
DISCID=0d0cf312
DTITLE=Martina McBride - Timeless
DYEAR=2005
DGENRE=Country
TTITLE0=Martina McBride - Help Me Make It Through The Ni
TTITLE1=Martina McBride - I'll Be There
TTITLE2=Martina McBride - I Can't Stop Loving You
TTITLE3=Martina McBride - (I Never Promised You A) Rose
TTITLE4=Martina McBride - Today I Started Loving You Aga
TTITLE5=Martina McBride - You Ain't Woman Enough
TTITLE6=Martina McBride - Once A Day
TTITLE7=Martina McBride - Pick Me Up On Your Way Down
TTITLE8=Martina McBride - I Don't Hurt Anymore
TTITLE9=Martina McBride - True Love Ways
TTITLE10=Martina McBride - 'Til I Can Make It On My Own
TTITLE11=Martina McBride - I Still Miss Someone
TTITLE12=Martina McBride - Heartaches By The Number
TTITLE13=Martina McBride - Satin Sheets
TTITLE14=Martina McBride - Thanks A Lot
TTITLE15=Martina McBride - Love's Gonna Live Here
TTITLE16=Martina McBride - Make The World Go Away
TTITLE17=Martina McBride - You Win Again
EXTD=YEAR: 2005
EXTT0=
EXTT1=
EXTT2=
EXTT3=
EXTT4=
EXTT5=
EXTT6=
EXTT7=
EXTT8=
EXTT9=
EXTT10=
EXTT11=
EXTT12=
EXTT13=
EXTT14=
EXTT15=
EXTT16=
EXTT17=
PLAYORDER=
